<svg xmlns="http://www.w3.org/2000/svg" width="88.695" height="31.161" viewBox="0 0 88.695 31.161"><g transform="translate(0 0.1)"><path d="M6.167,13.645A3.117,3.117,0,0,1,4.2,14.957,3.392,3.392,0,0,1,6.167,16.27a4.674,4.674,0,0,1,.59,2.493v7.02a1.848,1.848,0,0,0,.459,1.378,2.226,2.226,0,0,0,1.443.459h1.706V30.9A13.224,13.224,0,0,1,8,31.1a5.888,5.888,0,0,1-4.2-1.378,5.386,5.386,0,0,1-1.378-4V18.5a1.6,1.6,0,0,0-.459-1.312,1.691,1.691,0,0,0-1.312-.459H0V13.317H.656a1.691,1.691,0,0,0,1.312-.459,1.787,1.787,0,0,0,.459-1.312V5.379a5.386,5.386,0,0,1,1.378-4A5.678,5.678,0,0,1,8,0a12.711,12.711,0,0,1,2.362.2v3.28H8.66a1.914,1.914,0,0,0-1.443.459,1.667,1.667,0,0,0-.459,1.378v5.839A4.836,4.836,0,0,1,6.167,13.645Z" transform="translate(0 -0.034)" fill="#262621"/><path d="M17.266,12.162h3.543l.328,2.231h.2a3.85,3.85,0,0,1,3.8-2.493,5.1,5.1,0,0,1,1.05.131v4A8.188,8.188,0,0,0,24.81,15.9a3.882,3.882,0,0,0-1.9.459,3.035,3.035,0,0,0-1.378,1.181V28.366H17.2v-16.2Z" transform="translate(-5.916 -4.128)" fill="#262621"/><path d="M34.006,26.6c-1.181-1.378-1.706-3.477-1.706-6.3,0-5.642,2.231-8.4,6.757-8.4A6.113,6.113,0,0,1,44.043,14q1.771,2.066,1.771,6.3c0,5.576-2.231,8.332-6.757,8.332A6.211,6.211,0,0,1,34.006,26.6Zm6.3-1.574a2.933,2.933,0,0,0,.787-1.509,12.766,12.766,0,0,0,.262-3.083,14,14,0,0,0-.262-3.215,2.914,2.914,0,0,0-.787-1.574,2.113,2.113,0,0,0-1.312-.459,1.891,1.891,0,0,0-1.312.459,2.914,2.914,0,0,0-.787,1.574,17.484,17.484,0,0,0-.2,3.083,13.026,13.026,0,0,0,.262,3.149,2.933,2.933,0,0,0,.787,1.509,2.082,2.082,0,0,0,1.312.394A1.871,1.871,0,0,0,40.3,25.021Z" transform="translate(-11.11 -4.128)" fill="#262621"/><path d="M57.437,26.6c-1.181-1.378-1.837-3.477-1.837-6.363s.656-5.051,1.968-6.363A7.729,7.729,0,0,1,63.276,11.9a13.9,13.9,0,0,1,2.887.262V15.7a11.368,11.368,0,0,0-2.1-.2,4.61,4.61,0,0,0-2.3.459,3.133,3.133,0,0,0-1.312,1.443,6.445,6.445,0,0,0-.394,2.755,8.48,8.48,0,0,0,.394,2.887,2.8,2.8,0,0,0,1.181,1.509,4.438,4.438,0,0,0,2.034.459,7.771,7.771,0,0,0,2.493-.459V28.1a10.157,10.157,0,0,1-3.477.525A6.544,6.544,0,0,1,57.437,26.6Z" transform="translate(-19.125 -4.128)" fill="#262621"/><path d="M84.334,9.564a4.669,4.669,0,0,0-2.231.525,5.472,5.472,0,0,0-.787.525L82.366,5.3H78.233L74.1,26.031h4.133l2.362-11.743a2.913,2.913,0,0,1,.722-.525,2.843,2.843,0,0,1,1.246-.262,1.725,1.725,0,0,1,1.312.525,2.415,2.415,0,0,1,.459,1.706V26.1h4.33V15.272a6.566,6.566,0,0,0-1.181-4.33A3.939,3.939,0,0,0,84.334,9.564Z" transform="translate(-25.488 -1.857)" fill="#262621"/><path d="M108.847,12.484a3.967,3.967,0,0,1,2.1,2.034,8.621,8.621,0,0,1,.656,3.8V28.36h-3.477l-.328-1.706h-.2a3.713,3.713,0,0,1-1.509,1.509,4.573,4.573,0,0,1-2.165.459,4.675,4.675,0,0,1-2.362-.59,3.8,3.8,0,0,1-1.574-1.64A5.005,5.005,0,0,1,99.4,23.9a4.468,4.468,0,0,1,1.443-3.608,7.553,7.553,0,0,1,4.527-1.509l2.034-.2V18.06a3.615,3.615,0,0,0-.328-1.64,1.821,1.821,0,0,0-.984-.853,4.736,4.736,0,0,0-1.837-.262c-.59,0-1.181.066-1.837.131a16.138,16.138,0,0,0-1.9.459V12.418a11.264,11.264,0,0,1,2.231-.394,15.068,15.068,0,0,1,2.362-.131A7.865,7.865,0,0,1,108.847,12.484Zm-2.362,12.6a2.051,2.051,0,0,0,.918-.787V21.144l-1.509.131a2.691,2.691,0,0,0-1.706.656,1.882,1.882,0,0,0-.59,1.509,1.914,1.914,0,0,0,.459,1.443,1.691,1.691,0,0,0,1.312.459A2.156,2.156,0,0,0,106.485,25.08Z" transform="translate(-34.191 -4.121)" fill="#262621"/><path d="M129.765,13.152v3.411h-.656a1.691,1.691,0,0,0-1.312.459,1.787,1.787,0,0,0-.459,1.312v7.216a5.386,5.386,0,0,1-1.378,4,5.678,5.678,0,0,1-4.2,1.378,13.224,13.224,0,0,1-2.362-.2v-3.28h1.706a1.914,1.914,0,0,0,1.443-.459,1.667,1.667,0,0,0,.459-1.378V18.662a4.836,4.836,0,0,1,.59-2.493,3.191,3.191,0,0,1,1.968-1.378,3.191,3.191,0,0,1-1.968-1.378,4.674,4.674,0,0,1-.59-2.493V5.214a1.848,1.848,0,0,0-.459-1.378,2.226,2.226,0,0,0-1.443-.459H119.4V.1a13.224,13.224,0,0,1,2.362-.2,5.888,5.888,0,0,1,4.2,1.378,5.386,5.386,0,0,1,1.378,4v6.035a1.6,1.6,0,0,0,.459,1.312,1.787,1.787,0,0,0,1.312.459h.656Z" transform="translate(-41.07)" fill="#262621"/></g></svg>